<?xml version="1.0" encoding="UTF-8" standalone="no"?>
<!-- Created with Inkscape (http://www.inkscape.org/) -->

<svg
   width="323.67889mm"
   height="323.68066mm"
   viewBox="0 0 323.67889 323.68066"
   version="1.1"
   id="svg1"
   inkscape:version="1.4 (1:1.4+202410161351+e7c3feb100)"
   sodipodi:docname="stub.svg"
   inkscape:export-filename="stub.png"
   inkscape:export-xdpi="96"
   inkscape:export-ydpi="96"
   xmlns:inkscape="http://www.inkscape.org/namespaces/inkscape"
   xmlns:sodipodi="http://sodipodi.sourceforge.net/DTD/sodipodi-0.dtd"
   xmlns="http://www.w3.org/2000/svg"
   xmlns:svg="http://www.w3.org/2000/svg">
  <sodipodi:namedview
     id="namedview1"
     pagecolor="#ffffff"
     bordercolor="#000000"
     borderopacity="0.25"
     inkscape:showpageshadow="2"
     inkscape:pageopacity="0.0"
     inkscape:pagecheckerboard="0"
     inkscape:deskcolor="#d1d1d1"
     inkscape:document-units="mm"
     inkscape:zoom="0.2246868"
     inkscape:cx="605.287"
     inkscape:cy="620.86424"
     inkscape:window-width="1920"
     inkscape:window-height="1131"
     inkscape:window-x="0"
     inkscape:window-y="32"
     inkscape:window-maximized="1"
     inkscape:current-layer="layer1" />
  <defs
     id="defs1" />
  <g
     inkscape:label="Layer 1"
     inkscape:groupmode="layer"
     id="layer1"
     transform="translate(42.862501,45.243753)">
    <path
       id="path7"
       d="m 280.81639,116.59658 c 0,45.28256 -18.59915,86.2189 -48.56798,115.59116 -0.18626,0.17992 -0.37642,0.3669 -0.56692,0.55034 -2.45814,2.38477 -4.99284,4.69548 -7.60341,6.92502 -5.1449,4.40621 -10.56923,8.48783 -16.24295,12.22023 -25.50512,16.78868 -56.04121,26.55358 -88.85766,26.55358 -32.816444,0 -63.352181,-9.7649 -88.857659,-26.55358 -5.673725,-3.7324 -11.098038,-7.81402 -16.242948,-12.22023 -2.610557,-2.22954 -5.145265,-4.54025 -7.6034187,-6.92502 -0.1905,-0.18344 -0.3806481,-0.37042 -0.5669148,-0.55034 -29.9688245,-29.37226 -48.5690305,-70.3086 -48.5690305,-115.59116 0,-89.383288 72.45773,-161.840333 161.839971,-161.840333 89.38225,0 161.83892,72.457045 161.83892,161.840333"
       style="fill:#d9dad7;fill-opacity:1;fill-rule:nonzero;stroke:none;stroke-width:0.0352777" />
    <path
       id="path8"
       d="m 231.68149,232.73808 c -2.45814,2.38477 -4.99284,4.69548 -7.60341,6.92502 -5.1449,4.40621 -10.56923,8.48783 -16.24295,12.22023 -25.50512,16.78868 -56.04121,26.55358 -88.85766,26.55358 -32.816444,0 -63.352181,-9.7649 -88.857659,-26.55358 -5.673725,-3.7324 -11.098038,-7.81402 -16.242948,-12.22023 -2.610557,-2.22954 -5.145265,-4.54025 -7.6034187,-6.92502 C 12.374736,213.83624 27.289473,198.5151 46.963889,192.30268 L 94.868641,177.1791 v -7.90221 c -6.003925,-3.56658 -11.368969,-7.64471 -15.794567,-10.63273 -8.2296,-5.54918 -13.76821,-14.2522 -15.405452,-24.04533 L 61.112747,119.3165 c -8.001,0 -14.466006,-6.46288 -14.466006,-14.46388 0,-5.951375 3.571171,-11.048996 8.690681,-13.271496 C 50.865258,81.093041 47.581604,69.976996 45.609929,58.578746 44.357566,51.357394 43.650954,43.740913 45.770796,36.777079 47.886404,29.813246 53.496981,23.703144 60.114387,23.583208 l 0.867127,0.05996 C 65.157697,17.120311 71.686556,12.823477 78.536441,10.339913 85.38668,7.8528298 92.617566,7.0097086 99.785305,6.1877276 c 2.801055,-0.3245644 5.614455,-0.6491023 8.436675,-0.9313334 13.01504,-1.2523522 27.18506,-1.5592689 40.49184,2.1484167 13.31101,3.7076851 26.1694,12.0191471 32.94766,25.2694811 5.382,10.512768 6.47349,23.195121 5.11953,35.193101 -0.89712,7.962186 -2.80529,15.712731 -5.04367,23.364481 5.58517,2.00025 9.56662,7.337769 9.56662,13.620746 0,8.001 -6.46076,14.46388 -14.46599,14.46388 l -2.55553,15.28233 c -1.63759,9.79313 -7.17197,18.49615 -15.40122,24.04533 -4.43018,2.98802 -9.79099,7.06615 -15.79492,10.63273 v 7.90221 l 47.90053,15.12358 c 19.67865,6.21242 34.59337,21.53356 40.69466,40.4354"
       style="fill:#909292;fill-opacity:1;fill-rule:nonzero;stroke:none;stroke-width:0.0352777" />
  </g>
</svg>
